<svg xmlns:xlink="http://www.w3.org/1999/xlink" viewBox="0 0 200 200">
  <defs>
    <clipPath id="clip-path-background-color-2__a">
      <path d="M0 0h200v200H0z"/>
    </clipPath>
    <clipPath id="clip-path-background-color-2__b">
      <path d="M47 12h5V7h-2.5A2.5 2.5 0 0 0 47 9.5M52 7v5h5V9.5A2.5 2.5 0 0 0 54.5 7m7.5 5h5V7h-2.5A2.5 2.5 0 0 0 62 9.5M67 7h5v5h-5zm5 0h5v5h-5zm5 0h5v5h-5zm5 0v5h5V9.5A2.5 2.5 0 0 0 84.5 7"/>
      <circle cx="104.5" cy="9.5" r="2.5"/>
      <path d="M117 12h5V7h-2.5a2.5 2.5 0 0 0-2.5 2.5m5-2.5v5h2.5a2.5 2.5 0 0 0 0-5M47 12h5v5h-5zm5 0h5v5h-5zm10 0h5v5h-5zm10 0h5v5h-5zm5 0h5v5h-5zm10 0h-5v5h2.5a2.5 2.5 0 0 0 2.5-2.5"/>
      <circle cx="94.5" cy="14.5" r="2.5"/>
      <path d="M112 17v-5h-2.5a2.5 2.5 0 0 0 0 5m2.5-5h5v5h-5zm5 0h5v5h-5zm10 5h5v-5h-2.5a2.5 2.5 0 0 0-2.5 2.5m5-2.5v5h2.5a2.5 2.5 0 0 0 0-5m7.5 5h5v-5h-2.5a2.5 2.5 0 0 0-2.5 2.5m5-2.5v5h5v-2.5a2.5 2.5 0 0 0-2.5-2.5M52 22v-5h-5v2.5a2.5 2.5 0 0 0 2.5 2.5m2.5-5h5v5h-5zm5 0h5v5h-5zm5 0h5v5h-5zm5 0h5v5h-5zm10 0h-5v5h2.5a2.5 2.5 0 0 0 2.5-2.5M87 22h5v-2.5a2.5 2.5 0 0 0-5 0"/>
      <circle cx="99.5" cy="19.5" r="2.5"/>
      <path d="M117 22v-5h-5v2.5a2.5 2.5 0 0 0 2.5 2.5m2.5-5h5v5h-5zm5 0h5v5h-5zm10 0h-5v5h2.5a2.5 2.5 0 0 0 2.5-2.5m5 2.5h5v-5h-2.5a2.5 2.5 0 0 0-2.5 2.5m5-2.5h5v5h-5zm10 0h-5v5h2.5a2.5 2.5 0 0 0 2.5-2.5M92 27v-5h-5v2.5a2.5 2.5 0 0 0 2.5 2.5m2.5-5v5h2.5a2.5 2.5 0 0 0 0-5m7.5 5h5v-2.5a2.5 2.5 0 0 0-5 0m15-2.5h5v5h-5zm5 0h5v5h-5zm10 5h5v-5h-2.5a2.5 2.5 0 0 0-2.5 2.5m10-2.5h-5v5h2.5a2.5 2.5 0 0 0 2.5-2.5M62 32h5v-5h-2.5a2.5 2.5 0 0 0-2.5 2.5m5-2.5v5h5v-2.5a2.5 2.5 0 0 0-2.5-2.5"/>
      <circle cx="79.5" cy="29.5" r="2.5"/>
      <path d="M107 27h-5v2.5a2.5 2.5 0 0 0 5 0m15 2.5v-5h-5v2.5a2.5 2.5 0 0 0 2.5 2.5m2.5-5h5v5h-5zm5 0h5v5h-5zm5 0h5v5h-5zM47 37h5v-2.5a2.5 2.5 0 0 0-5 0M57 37h5v-5h-2.5a2.5 2.5 0 0 0-2.5 2.5m5-2.5h5v5h-5zm5 0h5v5h-5z"/>
      <circle cx="94.5" cy="34.5" r="2.5"/>
      <path d="M137 37v-5h-5v2.5a2.5 2.5 0 0 0 2.5 2.5m2.5-5h5v5h-5zm5 0h5v5h-5zm5 0v5h5v-2.5a2.5 2.5 0 0 0-2.5-2.5M47 37h5v5h-5zm15 0h-5v2.5a2.5 2.5 0 0 0 5 0m5-2.5h5v5h-5zm10 5h5v-2.5a2.5 2.5 0 0 0-5 0"/>
      <circle cx="89.5" cy="39.5" r="2.5"/>
      <path d="M97 42h5v-2.5a2.5 2.5 0 0 0-5 0"/>
      <circle cx="109.5" cy="39.5" r="2.5"/>
      <path d="M117 42h5v-2.5a2.5 2.5 0 0 0-5 0m10 2.5h5v-2.5a2.5 2.5 0 0 0-5 0m15-2.5h-5v2.5a2.5 2.5 0 0 0 5 0m5-2.5h5v5h-5zM47 42h5v5h-5zm20 5v-5h-2.5a2.5 2.5 0 0 0 0 5m2.5-5h5v5h-5zm15 0h-5v2.5a2.5 2.5 0 0 0 5 0m20 2.5v-5h-5v2.5a2.5 2.5 0 0 0 2.5 2.5m2.5-5v5h2.5a2.5 2.5 0 0 0 0-5m7.5 5h5v-5h-2.5a2.5 2.5 0 0 0-2.5 2.5m5-2.5h5v5h-5zm15 5v-5h-5v2.5a2.5 2.5 0 0 0 2.5 2.5m2.5-5v5h2.5a2.5 2.5 0 0 0 0-5m12.5 0h5v5h-5zM22 52v-5h-2.5a2.5 2.5 0 0 0 0 5m2.5-5h5v5h-5zm5 0v5h2.5a2.5 2.5 0 0 0 0-5"/>
      <circle cx="39.5" cy="49.5" r="2.5"/>
      <path d="M47 47h5v5h-5zm20 0h5v5h-5zm5 0v5h5v-2.5a2.5 2.5 0 0 0-2.5-2.5"/>
      <circle cx="84.5" cy="49.5" r="2.5"/>
      <path d="M112 47h5v5h-5zm5 0h5v5h-5zm5 0v5h2.5a2.5 2.5 0 0 0 0-5"/>
      <circle cx="139.5" cy="49.5" r="2.5"/>
      <path d="M152 52v-5h-5v2.5a2.5 2.5 0 0 0 2.5 2.5m2.5-5h5v5h-5zm5 0h5v5h-5zm5 0v5h5v-2.5a2.5 2.5 0 0 0-2.5-2.5m17.5 5v-5h-2.5a2.5 2.5 0 0 0 0 5m2.5-5h5v5h-5zm5 0v5h2.5a2.5 2.5 0 0 0 0-5"/>
      <circle cx="14.5" cy="54.5" r="2.5"/>
      <circle cx="34.5" cy="54.5" r="2.5"/>
      <path d="M47 57v-5h-2.5a2.5 2.5 0 0 0 0 5m7.5-5h-5v5h2.5a2.5 2.5 0 0 0 2.5-2.5"/>
      <circle cx="59.5" cy="54.5" r="2.5"/>
      <path d="M72 57v-5h-5v2.5a2.5 2.5 0 0 0 2.5 2.5m2.5-5h5v5h-5z"/>
      <circle cx="94.5" cy="54.5" r="2.5"/>
      <path d="M112 57v-5h-2.5a2.5 2.5 0 0 0 0 5m2.5-5h5v5h-5zm10 0h-5v5h2.5a2.5 2.5 0 0 0 2.5-2.5m10 2.5v-5h-2.5a2.5 2.5 0 0 0 0 5m2.5-5v5h5v-2.5a2.5 2.5 0 0 0-2.5-2.5m7.5 5h5v-2.5a2.5 2.5 0 0 0-5 0m25-2.5h-5v2.5a2.5 2.5 0 0 0 5 0"/>
      <circle cx="174.5" cy="54.5" r="2.5"/>
      <circle cx="19.5" cy="59.5" r="2.5"/>
      <circle cx="29.5" cy="59.5" r="2.5"/>
      <circle cx="39.5" cy="59.5" r="2.5"/>
      <circle cx="64.5" cy="59.5" r="2.5"/>
      <path d="M72 57h5v5h-5zm5 0h5v5h-5zm5 0v5h5v-2.5a2.5 2.5 0 0 0-2.5-2.5m17.5 5h5v-2.5a2.5 2.5 0 0 0-5 0m20 2.5h5v-2.5a2.5 2.5 0 0 0-5 0m15 2.5v-5h-5v2.5a2.5 2.5 0 0 0 2.5 2.5m2.5-5h5v5h-5zm5 0h5v5h-5zm5 0v5h2.5a2.5 2.5 0 0 0 0-5m7.5 5h5v-2.5a2.5 2.5 0 0 0-5 0"/>
      <circle cx="169.5" cy="59.5" r="2.5"/>
      <path d="M182 62v-5h-2.5a2.5 2.5 0 0 0 0 5m2.5-5h5v5h-5zm5 0v5h5v-2.5a2.5 2.5 0 0 0-2.5-2.5"/>
      <circle cx="9.5" cy="64.5" r="2.5"/>
      <path d="M32 67h5v-2.5a2.5 2.5 0 0 0-5 0M42 67h5v-2.5a2.5 2.5 0 0 0-5 0"/>
      <circle cx="59.5" cy="64.5" r="2.5"/>
      <path d="M72 62h5v5h-5zm5 0h5v5h-5zm10 0h-5v5h2.5a2.5 2.5 0 0 0 2.5-2.5m15 2.5v-5h-2.5a2.5 2.5 0 0 0 0 5m7.5-5h-5v5h2.5a2.5 2.5 0 0 0 2.5-2.5"/>
      <circle cx="114.5" cy="64.5" r="2.5"/>
      <path d="M122 62h5v5h-5zm15 0h5v5h-5zm5 0h5v5h-5zm15 0h5v5h-5zm30 5v-5h-5v2.5a2.5 2.5 0 0 0 2.5 2.5m7.5-5h-5v5h2.5a2.5 2.5 0 0 0 2.5-2.5M17 72h5v-2.5a2.5 2.5 0 0 0-5 0M37 72v-5h-5v2.5a2.5 2.5 0 0 0 2.5 2.5m2.5-5h5v5h-5zm10 0h-5v5h2.5a2.5 2.5 0 0 0 2.5-2.5m5 2.5h5v-2.5a2.5 2.5 0 0 0-5 0M72 67h5v5h-5zm5 0h5v5h-5z"/>
      <circle cx="89.5" cy="69.5" r="2.5"/>
      <path d="M122 67h5v5h-5zm5 0h5v5h-5zm5 0h5v5h-5zm5 0h5v5h-5zm5 0h5v5h-5zm5 0h5v5h-5zm5 0h5v5h-5zm5 0h5v5h-5zm5 0h5v5h-5zm5 0h5v5h-5zm5 0h5v5h-5zm5 0v5h5v-2.5a2.5 2.5 0 0 0-2.5-2.5M12 77v-5H9.5a2.5 2.5 0 0 0 0 5m2.5-5h5v5h-5zm5 0h5v5h-5zm5 0v5h2.5a2.5 2.5 0 0 0 0-5M52 77v-5h-2.5a2.5 2.5 0 0 0 0 5m2.5-5h5v5h-5zm5 0v5h2.5a2.5 2.5 0 0 0 0-5M72 72h5v5h-5zm5 0h5v5h-5zm5 0v5h5v-2.5a2.5 2.5 0 0 0-2.5-2.5m17.5 5h5v-5h-2.5a2.5 2.5 0 0 0-2.5 2.5m5-2.5v5h5v-2.5a2.5 2.5 0 0 0-2.5-2.5m12.5 5v-5h-2.5a2.5 2.5 0 0 0 0 5m2.5-5h5v5h-5zm5 0h5v5h-5zm5 0h5v5h-5zm20 5v-5h-5v2.5a2.5 2.5 0 0 0 2.5 2.5m2.5-5h5v5h-5zm10 0h5v5h-5zm10 0h5v5h-5zm10 0h-5v5h2.5a2.5 2.5 0 0 0 2.5-2.5M27 82h5v-5h-2.5a2.5 2.5 0 0 0-2.5 2.5m5-2.5h5v5h-5zm5 0h5v5h-5zm5 0v5h2.5a2.5 2.5 0 0 0 0-5m7.5 0h5v5h-5zm10 5h5v-2.5a2.5 2.5 0 0 0-5 0M72 77h5v5h-5zm5 0h5v5h-5zm10 0h-5v5h2.5a2.5 2.5 0 0 0 2.5-2.5m15 2.5v-5h-2.5a2.5 2.5 0 0 0 0 5m2.5-5h5v5h-5zm5 0h5v5h-5zm20 0h-5v2.5a2.5 2.5 0 0 0 5 0m10 2.5v-5h-5v2.5a2.5 2.5 0 0 0 2.5 2.5m2.5-5h5v5h-5zm5 0v5h2.5a2.5 2.5 0 0 0 0-5m12.5 0h-5v2.5a2.5 2.5 0 0 0 5 0m5-2.5h5v5h-5zm15 0h-5v2.5a2.5 2.5 0 0 0 5 0m10 2.5v-5h-2.5a2.5 2.5 0 0 0 0 5m2.5-5v5h5v-2.5a2.5 2.5 0 0 0-2.5-2.5M7 87h5v-5H9.5A2.5 2.5 0 0 0 7 84.5m5-2.5h5v5h-5zm5 0v5h2.5a2.5 2.5 0 0 0 0-5m7.5 0h5v5h-5zm25 5v-5h-2.5a2.5 2.5 0 0 0 0 5m2.5-5h5v5h-5zm10 0h5v5h-5zm10 0h5v5h-5zm10 0h-5v5h2.5a2.5 2.5 0 0 0 2.5-2.5m5 2.5h5v-5h-2.5a2.5 2.5 0 0 0-2.5 2.5m5-2.5v5h2.5a2.5 2.5 0 0 0 0-5m7.5 0h5v5h-5zm5 0h5v5h-5zm5 0v5h5v-2.5a2.5 2.5 0 0 0-2.5-2.5m22.5 0h5v5h-5z"/>
      <circle cx="149.5" cy="84.5" r="2.5"/>
      <path d="M167 87v-5h-5v2.5a2.5 2.5 0 0 0 2.5 2.5m2.5-5v5h5v-2.5a2.5 2.5 0 0 0-2.5-2.5m17.5 0h5v5h-5zM12 87H7v2.5a2.5 2.5 0 0 0 5 0M27 87h5v5h-5zm5 0h5v5h-5zm5 0v5h2.5a2.5 2.5 0 0 0 0-5M57 87h-5v2.5a2.5 2.5 0 0 0 5 0M67 87h-5v2.5a2.5 2.5 0 0 0 5 0M77 87h-5v2.5a2.5 2.5 0 0 0 5 0M87 92v-5h-2.5a2.5 2.5 0 0 0 0 5m7.5-5h-5v5h2.5a2.5 2.5 0 0 0 2.5-2.5m10-2.5h5v5h-5zm5 0h5v5h-5zm5 0h5v5h-5zm25 5v-5h-2.5a2.5 2.5 0 0 0 0 5m2.5-5h5v5h-5zm20 5v-5h-2.5a2.5 2.5 0 0 0 0 5m2.5-5v5h2.5a2.5 2.5 0 0 0 0-5m12.5 0h-5v2.5a2.5 2.5 0 0 0 5 0m5 2.5h5v-5h-2.5a2.5 2.5 0 0 0-2.5 2.5m5-2.5h5v5h-5zm10 0h-5v5h2.5a2.5 2.5 0 0 0 2.5-2.5"/>
      <circle cx="14.5" cy="94.5" r="2.5"/>
      <path d="M32 92h-5v2.5a2.5 2.5 0 0 0 5 0M47 97v-5h-2.5a2.5 2.5 0 0 0 0 5m2.5-5v5h2.5a2.5 2.5 0 0 0 0-5"/>
      <circle cx="59.5" cy="94.5" r="2.5"/>
      <path d="M67 97h5v-2.5a2.5 2.5 0 0 0-5 0"/>
      <circle cx="79.5" cy="94.5" r="2.5"/>
      <path d="M97 97v-5h-2.5a2.5 2.5 0 0 0 0 5m2.5-5h5v5h-5zm10 0h-5v5h2.5a2.5 2.5 0 0 0 2.5-2.5m10-2.5h-5v2.5a2.5 2.5 0 0 0 5 0m20-2.5h5v5h-5zm10 5h5v-2.5a2.5 2.5 0 0 0-5 0m25 2.5h5v-5h-2.5a2.5 2.5 0 0 0-2.5 2.5m10-2.5h-5v5h2.5a2.5 2.5 0 0 0 2.5-2.5M7 102h5v-2.5a2.5 2.5 0 0 0-5 0"/>
      <circle cx="19.5" cy="99.5" r="2.5"/>
      <circle cx="39.5" cy="99.5" r="2.5"/>
      <path d="M52 102h5v-2.5a2.5 2.5 0 0 0-5 0m20 2.5v-5h-5v2.5a2.5 2.5 0 0 0 2.5 2.5m2.5-5v5h5v-2.5a2.5 2.5 0 0 0-2.5-2.5m12.5 5v-5h-2.5a2.5 2.5 0 0 0 0 5m2.5-5v5h2.5a2.5 2.5 0 0 0 0-5m7.5 0h5v5h-5zm30 5v-5h-2.5a2.5 2.5 0 0 0 0 5m2.5-5v5h5v-2.5a2.5 2.5 0 0 0-2.5-2.5m7.5 0h5v5h-5zm5 0h5v5h-5zm5 0h5v5h-5z"/>
      <circle cx="159.5" cy="99.5" r="2.5"/>
      <path d="M172 102v-5h-2.5a2.5 2.5 0 0 0 0 5m7.5-5h-5v5h2.5a2.5 2.5 0 0 0 2.5-2.5m10 2.5v-5h-2.5a2.5 2.5 0 0 0 0 5m2.5-5v5h2.5a2.5 2.5 0 0 0 0-5M12 107v-5H7v2.5a2.5 2.5 0 0 0 2.5 2.5m2.5-5v5h2.5a2.5 2.5 0 0 0 0-5"/>
      <circle cx="24.5" cy="104.5" r="2.5"/>
      <path d="M42 107h5v-5h-2.5a2.5 2.5 0 0 0-2.5 2.5m5-2.5h5v5h-5zm5 0h5v5h-5zm5 0v5h5v-2.5a2.5 2.5 0 0 0-2.5-2.5m12.5 0h5v5h-5zm25 5v-5h-2.5a2.5 2.5 0 0 0 0 5m7.5-5h-5v5h2.5a2.5 2.5 0 0 0 2.5-2.5m15 2.5h5v-2.5a2.5 2.5 0 0 0-5 0m10-2.5h5v5h-5zm10 0h5v5h-5zm15 5v-5h-5v2.5a2.5 2.5 0 0 0 2.5 2.5m2.5-5v5h5v-2.5a2.5 2.5 0 0 0-2.5-2.5"/>
      <circle cx="19.5" cy="109.5" r="2.5"/>
      <path d="M27 112h5v-2.5a2.5 2.5 0 0 0-5 0m15 2.5v-5h-2.5a2.5 2.5 0 0 0 0 5m2.5-5h5v5h-5zm5 0h5v5h-5zm5 0h5v5h-5zm5 0h5v5h-5zm10 5h5v-5h-2.5a2.5 2.5 0 0 0-2.5 2.5m5-2.5h5v5h-5zm5 0h5v5h-5zm5 0h5v5h-5zm5 0v5h2.5a2.5 2.5 0 0 0 0-5m17.5 5h5v-2.5a2.5 2.5 0 0 0-5 0m10-2.5h5v5h-5zm5 0h5v5h-5zm5 0h5v5h-5zm5 0h5v5h-5zm10 0h-5v5h2.5a2.5 2.5 0 0 0 2.5-2.5m15 2.5v-5h-5v2.5a2.5 2.5 0 0 0 2.5 2.5m2.5-5h5v5h-5zm5 0h5v5h-5zm5 0v5h2.5a2.5 2.5 0 0 0 0-5m7.5 5h5v-5h-2.5a2.5 2.5 0 0 0-2.5 2.5m5-2.5h5v5h-5zm5 0v5h2.5a2.5 2.5 0 0 0 0-5M7 117h5v-5H9.5a2.5 2.5 0 0 0-2.5 2.5m5-2.5v5h2.5a2.5 2.5 0 0 0 0-5m17.5 5v-5h-5v2.5a2.5 2.5 0 0 0 2.5 2.5m2.5-5v5h5v-2.5a2.5 2.5 0 0 0-2.5-2.5m7.5 0h5v5h-5zm10 0h5v5h-5zm5 0h5v5h-5zm5 0h5v5h-5zm5 0h5v5h-5zm10 0h-5v5h2.5a2.5 2.5 0 0 0 2.5-2.5"/>
      <circle cx="94.5" cy="114.5" r="2.5"/>
      <path d="M112 112h-5v2.5a2.5 2.5 0 0 0 5 0m5-2.5h5v5h-5zm5 0h5v5h-5zm5 0h5v5h-5zm40 0h-5v2.5a2.5 2.5 0 0 0 5 0m10 2.5v-5h-2.5a2.5 2.5 0 0 0 0 5m2.5-5h5v5h-5zm5 0h5v5h-5zM7 117h5v5H7zm10 5h5v-5h-2.5a2.5 2.5 0 0 0-2.5 2.5m5-2.5v5h2.5a2.5 2.5 0 0 0 0-5m7.5 0h5v5h-5zm5 0h5v5h-5zm5 0h5v5h-5zm5 0h5v5h-5zm10 0h-5v5h2.5a2.5 2.5 0 0 0 2.5-2.5m25 2.5v-5h-2.5a2.5 2.5 0 0 0 0 5m2.5-5h5v5h-5zm5 0v5h2.5a2.5 2.5 0 0 0 0-5m12.5 5h5v-2.5a2.5 2.5 0 0 0-5 0m15-2.5h5v5h-5zm5 0h5v5h-5zm5 0h5v5h-5z"/>
      <circle cx="144.5" cy="119.5" r="2.5"/>
      <path d="M152 122h5v-5h-2.5a2.5 2.5 0 0 0-2.5 2.5m5-2.5v5h5v-2.5a2.5 2.5 0 0 0-2.5-2.5m22.5 5v-5h-5v2.5a2.5 2.5 0 0 0 2.5 2.5m2.5-5h5v5h-5zm5 0v5h5v-2.5a2.5 2.5 0 0 0-2.5-2.5M12 127v-5H7v2.5a2.5 2.5 0 0 0 2.5 2.5m2.5-5h5v5h-5zm10 0h-5v5h2.5a2.5 2.5 0 0 0 2.5-2.5m10 2.5v-5h-2.5a2.5 2.5 0 0 0 0 5m2.5-5h5v5h-5zm55 0h-5v2.5a2.5 2.5 0 0 0 5 0m10 2.5v-5h-2.5a2.5 2.5 0 0 0 0 5m2.5-5h5v5h-5zm10 0h-5v5h2.5a2.5 2.5 0 0 0 2.5-2.5m5 2.5h5v-5h-2.5a2.5 2.5 0 0 0-2.5 2.5m5-2.5h5v5h-5zm5 0h5v5h-5zm10 0h-5v5h2.5a2.5 2.5 0 0 0 2.5-2.5"/>
      <circle cx="139.5" cy="124.5" r="2.5"/>
      <path d="M157 127v-5h-5v2.5a2.5 2.5 0 0 0 2.5 2.5m2.5-5h5v5h-5zm5 0v5h5v-2.5a2.5 2.5 0 0 0-2.5-2.5m22.5 5v-5h-5v2.5a2.5 2.5 0 0 0 2.5 2.5m2.5-5h5v5h-5zm-175 5h5v5h-5zm20 0h5v5h-5zm5 0h5v5h-5zm5 0h5v5h-5zm5 0h5v5h-5zm5 0h5v5h-5zm5 0h5v5h-5zm5 0v5h2.5a2.5 2.5 0 0 0 0-5m12.5 5v-5h-2.5a2.5 2.5 0 0 0 0 5m2.5-5v5h2.5a2.5 2.5 0 0 0 0-5m17.5 0h5v5h-5zm15 5v-5h-2.5a2.5 2.5 0 0 0 0 5m7.5-5h-5v5h2.5a2.5 2.5 0 0 0 2.5-2.5m40-2.5h5v5h-5zm5 0h5v5h-5zm5 0h5v5h-5zm5 0h5v5h-5zm5 0v5h5v-2.5a2.5 2.5 0 0 0-2.5-2.5m12.5 0h-5v2.5a2.5 2.5 0 0 0 5 0M7 137h5v-5H9.5a2.5 2.5 0 0 0-2.5 2.5m10-2.5h-5v5h2.5a2.5 2.5 0 0 0 2.5-2.5m5 2.5h5v-2.5a2.5 2.5 0 0 0-5 0m15-2.5h-5v2.5a2.5 2.5 0 0 0 5 0m25-2.5h-5v2.5a2.5 2.5 0 0 0 5 0"/>
      <circle cx="69.5" cy="134.5" r="2.5"/>
      <path d="M102 137v-5h-5v2.5a2.5 2.5 0 0 0 2.5 2.5m2.5-5v5h5v-2.5a2.5 2.5 0 0 0-2.5-2.5"/>
      <circle cx="119.5" cy="134.5" r="2.5"/>
      <circle cx="129.5" cy="134.5" r="2.5"/>
      <path d="M137 137h5v-5h-2.5a2.5 2.5 0 0 0-2.5 2.5m5-2.5h5v5h-5zm5 0v5h2.5a2.5 2.5 0 0 0 0-5m7.5 0h5v5h-5zm5 0h5v5h-5zm10 0h5v5h-5zm10 0h-5v5h2.5a2.5 2.5 0 0 0 2.5-2.5M7 137h5v5H7zm15 0h5v5h-5zm5 0v5h2.5a2.5 2.5 0 0 0 0-5m12.5 5v-5h-2.5a2.5 2.5 0 0 0 0 5m2.5-5v5h5v-2.5a2.5 2.5 0 0 0-2.5-2.5"/>
      <circle cx="64.5" cy="139.5" r="2.5"/>
      <path d="M77 142v-5h-2.5a2.5 2.5 0 0 0 0 5m2.5-5v5h5v-2.5a2.5 2.5 0 0 0-2.5-2.5"/>
      <circle cx="94.5" cy="139.5" r="2.5"/>
      <path d="M102 137h5v5h-5zm5 0h5v5h-5zm5 0v5h5v-2.5a2.5 2.5 0 0 0-2.5-2.5m22.5 5v-5h-2.5a2.5 2.5 0 0 0 0 5m2.5-5h5v5h-5zm25 5v-5h-5v2.5a2.5 2.5 0 0 0 2.5 2.5m7.5-5h-5v5h2.5a2.5 2.5 0 0 0 2.5-2.5m10-2.5h-5v2.5a2.5 2.5 0 0 0 5 0m5 2.5h5v-5h-2.5a2.5 2.5 0 0 0-2.5 2.5m5-2.5v5h5v-2.5a2.5 2.5 0 0 0-2.5-2.5M7 142h5v5H7zm15 5v-5h-2.5a2.5 2.5 0 0 0 0 5m2.5-5h5v5h-5zm25 0h-5v2.5a2.5 2.5 0 0 0 5 0m5 2.5h5v-5h-2.5a2.5 2.5 0 0 0-2.5 2.5m5-2.5v5h2.5a2.5 2.5 0 0 0 0-5m17.5 0h5v5h-5z"/>
      <circle cx="89.5" cy="144.5" r="2.5"/>
      <path d="M102 147v-5h-2.5a2.5 2.5 0 0 0 0 5m2.5-5h5v5h-5zm15 5v-5h-5v2.5a2.5 2.5 0 0 0 2.5 2.5m2.5-5v5h5v-2.5a2.5 2.5 0 0 0-2.5-2.5"/>
      <circle cx="129.5" cy="144.5" r="2.5"/>
      <path d="M137 142h5v5h-5zm10 5h5v-5h-2.5a2.5 2.5 0 0 0-2.5 2.5m5-2.5v5h5v-2.5a2.5 2.5 0 0 0-2.5-2.5m27.5 0h5v5h-5zm5 0h5v5h-5zm-175 5H7v2.5a2.5 2.5 0 0 0 5 0m15-2.5h-5v2.5a2.5 2.5 0 0 0 5 0m10 2.5v-5h-2.5a2.5 2.5 0 0 0 0 5m2.5-5v5h2.5a2.5 2.5 0 0 0 0-5m7.5 5h5v-5h-2.5a2.5 2.5 0 0 0-2.5 2.5m5-2.5h5v5h-5zm10 5h5v-5h-2.5a2.5 2.5 0 0 0-2.5 2.5m5-2.5h5v5h-5zm5 0h5v5h-5zm5 0h5v5h-5zm5 0v5h5v-2.5a2.5 2.5 0 0 0-2.5-2.5"/>
      <circle cx="94.5" cy="149.5" r="2.5"/>
      <path d="M107 147h-5v2.5a2.5 2.5 0 0 0 5 0m15-2.5h-5v2.5a2.5 2.5 0 0 0 5 0m15 2.5v-5h-2.5a2.5 2.5 0 0 0 0 5m7.5-5h-5v5h2.5a2.5 2.5 0 0 0 2.5-2.5m5-2.5h5v5h-5zm5 0h5v5h-5zm5 0h5v5h-5zm5 0h5v5h-5zm5 0h5v5h-5zm5 0h5v5h-5zm5 0h5v5h-5zm5 0h5v5h-5zm10 0h-5v5h2.5a2.5 2.5 0 0 0 2.5-2.5M52 157v-5h-5v2.5a2.5 2.5 0 0 0 2.5 2.5m2.5-5h5v5h-5zm5 0h5v5h-5zm5 0h5v5h-5zm10 0h-5v5h2.5a2.5 2.5 0 0 0 2.5-2.5m5-2.5h5v5h-5zm5 0h5v5h-5zm5 0v5h2.5a2.5 2.5 0 0 0 0-5"/>
      <circle cx="114.5" cy="154.5" r="2.5"/>
      <circle cx="124.5" cy="154.5" r="2.5"/>
      <path d="M147 157v-5h-2.5a2.5 2.5 0 0 0 0 5m2.5-5h5v5h-5zm20 0h5v5h-5zm15 0h5v5h-5zm-130 5h5v5h-5zm10 0h-5v5h2.5a2.5 2.5 0 0 0 2.5-2.5m15 2.5v-5h-2.5a2.5 2.5 0 0 0 0 5m2.5-5h5v5h-5zm5 0h5v5h-5zm20 5h5v-2.5a2.5 2.5 0 0 0-5 0m15 2.5h5v-2.5a2.5 2.5 0 0 0-5 0"/>
      <circle cx="134.5" cy="159.5" r="2.5"/>
      <path d="M147 157h5v5h-5z"/>
      <circle cx="159.5" cy="159.5" r="2.5"/>
      <path d="M167 157h5v5h-5zm5 0v5h2.5a2.5 2.5 0 0 0 0-5m7.5 0h5v5h-5zm5 0v5h5v-2.5a2.5 2.5 0 0 0-2.5-2.5M52 162h5v5h-5z"/>
      <circle cx="69.5" cy="164.5" r="2.5"/>
      <path d="M87 162h-5v2.5a2.5 2.5 0 0 0 5 0m15 2.5v-5h-2.5a2.5 2.5 0 0 0 0 5m2.5-5h5v5h-5zm5 0v5h2.5a2.5 2.5 0 0 0 0-5m7.5 0h5v5h-5zm5 0v5h5v-2.5a2.5 2.5 0 0 0-2.5-2.5m12.5 5h5v-2.5a2.5 2.5 0 0 0-5 0m10-2.5h5v5h-5zm20 0h5v5h-5zm20 5v-5h-5v2.5a2.5 2.5 0 0 0 2.5 2.5m7.5-5h-5v5h2.5a2.5 2.5 0 0 0 2.5-2.5M47 172h5v-5h-2.5a2.5 2.5 0 0 0-2.5 2.5m5-2.5h5v5h-5zm10 5h5v-2.5a2.5 2.5 0 0 0-5 0m30 2.5v-5h-2.5a2.5 2.5 0 0 0 0 5m2.5-5v5h2.5a2.5 2.5 0 0 0 0-5m7.5 0h5v5h-5zm10 5h5v-5h-2.5a2.5 2.5 0 0 0-2.5 2.5m5-2.5h5v5h-5zm5 0h5v5h-5zm5 0h5v5h-5zm5 0h5v5h-5zm5 0h5v5h-5zm5 0h5v5h-5zm5 0h5v5h-5zm5 0h5v5h-5zm5 0h5v5h-5zm5 0h5v5h-5zm5 0h5v5h-5z"/>
      <circle cx="179.5" cy="169.5" r="2.5"/>
      <path d="M47 172h5v5h-5zm5 0h5v5h-5zm5 0h5v5h-5zm5 0h5v5h-5zm10 5h5v-5h-2.5a2.5 2.5 0 0 0-2.5 2.5m5-2.5v5h5v-2.5a2.5 2.5 0 0 0-2.5-2.5m27.5 5v-5h-5v2.5a2.5 2.5 0 0 0 2.5 2.5m2.5-5h5v5h-5zm5 0h5v5h-5zm5 0h5v5h-5zm20 5v-5h-5v2.5a2.5 2.5 0 0 0 2.5 2.5m7.5-5h-5v5h2.5a2.5 2.5 0 0 0 2.5-2.5m20-2.5h-5v2.5a2.5 2.5 0 0 0 5 0m10-2.5h-5v2.5a2.5 2.5 0 0 0 5 0M52 182v-5h-5v2.5a2.5 2.5 0 0 0 2.5 2.5m2.5-5h5v5h-5zm5 0h5v5h-5zm5 0h5v5h-5zm5 0h5v5h-5zm5 0h5v5h-5zm5 0h5v5h-5zm15 5h5v-5h-2.5a2.5 2.5 0 0 0-2.5 2.5m5-2.5v5h5v-2.5a2.5 2.5 0 0 0-2.5-2.5m22.5 5v-5h-5v2.5a2.5 2.5 0 0 0 2.5 2.5m2.5-5h5v5h-5zm5 0v5h2.5a2.5 2.5 0 0 0 0-5"/>
      <circle cx="154.5" cy="179.5" r="2.5"/>
      <path d="M187 182h5v-2.5a2.5 2.5 0 0 0-5 0M52 182h5v5h-5zm15 5v-5h-5v2.5a2.5 2.5 0 0 0 2.5 2.5m2.5-5h5v5h-5zm5 0h5v5h-5zm5 0h5v5h-5zm5 0v5h5v-2.5a2.5 2.5 0 0 0-2.5-2.5m7.5 0h5v5h-5zm10 0h-5v5h2.5a2.5 2.5 0 0 0 2.5-2.5m20-2.5h5v5h-5zm20 5v-5h-2.5a2.5 2.5 0 0 0 0 5m2.5-5h5v5h-5zm5 0v5h2.5a2.5 2.5 0 0 0 0-5m12.5 5v-5h-2.5a2.5 2.5 0 0 0 0 5m2.5-5v5h2.5a2.5 2.5 0 0 0 0-5m22.5 0h5v5h-5zm-130 5h-5v2.5a2.5 2.5 0 0 0 5 0m25 2.5v-5h-5v2.5a2.5 2.5 0 0 0 2.5 2.5m2.5-5h5v5h-5zm5 0h5v5h-5zm10 0h-5v5h2.5a2.5 2.5 0 0 0 2.5-2.5"/>
      <circle cx="109.5" cy="189.5" r="2.5"/>
      <path d="M127 192v-5h-5v2.5a2.5 2.5 0 0 0 2.5 2.5m2.5-5h5v5h-5zm5 0v5h2.5a2.5 2.5 0 0 0 0-5"/>
      <circle cx="154.5" cy="189.5" r="2.5"/>
      <path d="M177 192v-5h-2.5a2.5 2.5 0 0 0 0 5m2.5-5h5v5h-5zm5 0h5v5h-5zm10 0h-5v5h2.5a2.5 2.5 0 0 0 2.5-2.5"/>
    </clipPath>
    <clipPath id="clip-path-background-color-2__c">
      <path d="M7 19.5v10A12.5 12.5 0 0 0 19.5 42h10A12.5 12.5 0 0 0 42 29.5v-10A12.5 12.5 0 0 0 29.5 7h-10A12.5 12.5 0 0 0 7 19.5M19.5 12h10a7.5 7.5 0 0 1 7.5 7.5v10a7.5 7.5 0 0 1-7.5 7.5h-10a7.5 7.5 0 0 1-7.5-7.5v-10a7.5 7.5 0 0 1 7.5-7.5" clip-rule="evenodd"/>
    </clipPath>
    <clipPath id="clip-path-background-color-2__d">
      <circle cx="24.5" cy="24.5" r="7.5"/>
    </clipPath>
    <clipPath id="clip-path-background-color-2__e">
      <path d="M179.5 7h-10A12.5 12.5 0 0 0 157 19.5v10A12.5 12.5 0 0 0 169.5 42h10A12.5 12.5 0 0 0 192 29.5v-10A12.5 12.5 0 0 0 179.5 7m7.5 12.5v10a7.5 7.5 0 0 1-7.5 7.5h-10a7.5 7.5 0 0 1-7.5-7.5v-10a7.5 7.5 0 0 1 7.5-7.5h10a7.5 7.5 0 0 1 7.5 7.5" clip-rule="evenodd"/>
    </clipPath>
    <clipPath id="clip-path-background-color-2__f">
      <circle cx="174.5" cy="24.5" r="7.5" transform="rotate(90 174.5 24.5)"/>
    </clipPath>
    <clipPath id="clip-path-background-color-2__g">
      <path d="M19.5 192h10A12.5 12.5 0 0 0 42 179.5v-10A12.5 12.5 0 0 0 29.5 157h-10A12.5 12.5 0 0 0 7 169.5v10A12.5 12.5 0 0 0 19.5 192M12 179.5v-10a7.5 7.5 0 0 1 7.5-7.5h10a7.5 7.5 0 0 1 7.5 7.5v10a7.5 7.5 0 0 1-7.5 7.5h-10a7.5 7.5 0 0 1-7.5-7.5" clip-rule="evenodd"/>
    </clipPath>
    <clipPath id="clip-path-background-color-2__h">
      <circle cx="24.5" cy="174.5" r="7.5" transform="rotate(-90 24.5 174.5)"/>
    </clipPath>
  </defs>
  <path fill="rgb(233 221 255)" d="M0 0h200v200H0z" clip-path="url(#clip-path-background-color-2__a)"/>
  <path fill="rgb(101 85 143)" d="M0 0h200v200H0z" clip-path="url(#clip-path-background-color-2__b)"/>
  <path fill="rgb(101 85 143)" d="M7 7h35v35H7z" clip-path="url(#clip-path-background-color-2__c)"/>
  <path fill="rgb(101 85 143)" d="M17 17h15v15H17z" clip-path="url(#clip-path-background-color-2__d)"/>
  <path fill="rgb(101 85 143)" d="M157 7h35v35h-35z" clip-path="url(#clip-path-background-color-2__e)"/>
  <path fill="rgb(101 85 143)" d="M167 17h15v15h-15z" clip-path="url(#clip-path-background-color-2__f)"/>
  <path fill="rgb(101 85 143)" d="M7 157h35v35H7z" clip-path="url(#clip-path-background-color-2__g)"/>
  <path fill="rgb(101 85 143)" d="M17 167h15v15H17z" clip-path="url(#clip-path-background-color-2__h)"/>
</svg>
